<?xml version="1.0" encoding="UTF-8"?>
<svg width="480px" height="480px" viewBox="0 0 480 480" version="1.1" xmlns="http://www.w3.org/2000/svg" xmlns:xlink="http://www.w3.org/1999/xlink">
    <!-- Generator: Sketch 64 (93537) - https://sketch.com -->
    <title>account</title>
    <desc>Created with Sketch.</desc>
    <g id="Page-1" stroke="none" stroke-width="1" fill="none" fill-rule="evenodd">
        <g id="account" fill="#C3C3C3" fill-rule="nonzero">
            <path d="M240,-2.84217094e-14 C107.453125,-2.84217094e-14 0,107.453125 0,240 C0,372.546875 107.453125,480 240,480 C247.230469,480 254.433594,479.675781 261.601562,479.03125 C268.265625,478.433594 274.871094,477.519531 281.425781,476.375 L283.945312,475.929688 C405.808594,453.1875 490.304688,341.378906 478.90625,217.933594 C467.507812,94.488281 363.96875,0.0390625 240,-2.84217094e-14 Z M220.71875,463.152344 L220.152344,463.152344 C213.929688,462.601562 207.753906,461.769531 201.632812,460.703125 C201.28125,460.640625 200.929688,460.601562 200.585938,460.535156 C194.601562,459.464844 188.679688,458.136719 182.816406,456.585938 L181.398438,456.222656 C175.679688,454.671875 170.023438,452.871094 164.449219,450.871094 C163.871094,450.664062 163.289062,450.480469 162.710938,450.265625 C157.246094,448.257812 151.878906,446.007812 146.59375,443.574219 C145.9375,443.28125 145.28125,443 144.625,442.6875 C139.441406,440.289062 134.359375,437.585938 129.375,434.742188 C128.671875,434.34375 127.960938,433.945312 127.257812,433.550781 C122.351562,430.6875 117.558594,427.617188 112.855469,424.375 C112.144531,423.878906 111.425781,423.398438 110.71875,422.902344 C106.097656,419.625 101.59375,416.144531 97.207031,412.503906 L96,411.449219 L96,344 C96.058594,295.421875 135.421875,256.058594 184,256 L296,256 C344.578125,256.058594 383.941406,295.421875 384,344 L384,411.457031 L382.9375,412.34375 C378.464844,416.078125 373.875,419.609375 369.160156,422.945312 C368.535156,423.382812 367.902344,423.800781 367.28125,424.230469 C362.523438,427.535156 357.648438,430.644531 352.65625,433.566406 C352.03125,433.929688 351.390625,434.273438 350.769531,434.632812 C345.710938,437.511719 340.566406,440.230469 335.320312,442.679688 C334.71875,442.960938 334.113281,443.222656 333.503906,443.480469 C328.175781,445.9375 322.761719,448.199219 317.257812,450.222656 C316.710938,450.425781 316.160156,450.601562 315.65625,450.792969 C310.054688,452.800781 304.375,454.617188 298.625,456.175781 L297.246094,456.519531 C291.375,458.070312 285.449219,459.40625 279.457031,460.480469 C279.113281,460.542969 278.769531,460.585938 278.425781,460.640625 C272.296875,461.710938 266.113281,462.542969 259.886719,463.097656 L259.320312,463.097656 C252.921875,463.648438 246.519531,463.945312 240.039062,463.945312 C233.558594,463.945312 227.105469,463.703125 220.71875,463.152344 L220.71875,463.152344 Z M400,396.625 L400,344 C399.933594,286.589844 353.410156,240.066406 296,240 L184,240 C126.589844,240.066406 80.066406,286.589844 80,344 L80,396.617188 C-6.164062,308.675781 -5.203125,167.679688 82.148438,80.917969 C169.5,-5.839844 310.5,-5.839844 397.851562,80.917969 C485.203125,167.679688 486.164062,308.675781 400,396.617188 L400,396.625 Z" id="Shape"></path>
            <path d="M240,64 C195.816406,64 160,99.816406 160,144 C160,188.183594 195.816406,224 240,224 C284.183594,224 320,188.183594 320,144 C319.953125,99.835938 284.164062,64.046875 240,64 Z M240,208 C204.652344,208 176,179.347656 176,144 C176,108.652344 204.652344,80 240,80 C275.347656,80 304,108.652344 304,144 C303.960938,179.328125 275.328125,207.960938 240,208 Z" id="Shape"></path>
        </g>
    </g>
</svg>