<?xml version="1.0" encoding="UTF-8"?>
<svg width="41px" height="41px" viewBox="0 0 41 41" version="1.1" xmlns="http://www.w3.org/2000/svg" xmlns:xlink="http://www.w3.org/1999/xlink">
    <!-- Generator: Sketch 64 (93537) - https://sketch.com -->
    <title>add-btn</title>
    <desc>Created with Sketch.</desc>
    <g id="Page-1" stroke="none" stroke-width="1" fill="none" fill-rule="evenodd">
        <g id="add-btn" fill="#ACACAC" fill-rule="nonzero">
            <path d="M20.5,0 C9.19649219,0 0,9.19649219 0,20.5 C0,31.8035078 9.19649219,41 20.5,41 C31.8035078,41 41,31.8035078 41,20.5 C41,9.19649219 31.8035078,0 20.5,0 Z M20.5,39.2916934 C10.1382109,39.2916934 1.70830664,30.8617891 1.70830664,20.5 C1.70830664,10.1382109 10.1382109,1.70830664 20.5,1.70830664 C30.8617891,1.70830664 39.2916934,10.1382109 39.2916934,20.5 C39.2916934,30.8617891 30.8617891,39.2916934 20.5,39.2916934 Z" id="Shape"></path>
            <path d="M32.1428342,20.1428342 L21.8571658,20.1428342 L21.8571658,9.85716582 C21.8571658,9.38338222 21.4737836,9 21,9 C20.5262164,9 20.1428342,9.38338222 20.1428342,9.85716582 L20.1428342,20.1428342 L9.85716582,20.1428342 C9.38338222,20.1428342 9,20.5262164 9,21 C9,21.4737836 9.38338222,21.8571658 9.85716582,21.8571658 L20.1428342,21.8571658 L20.1428342,32.1428342 C20.1428342,32.6166178 20.5262164,33 21,33 C21.4737836,33 21.8571658,32.6166178 21.8571658,32.1428342 L21.8571658,21.8571658 L32.1428342,21.8571658 C32.6166178,21.8571658 33,21.4737836 33,21 C33,20.5262164 32.6166178,20.1428342 32.1428342,20.1428342 Z" id="Path"></path>
        </g>
    </g>
</svg>