<?xml version="1.0" encoding="UTF-8"?>
<svg width="125px" height="125px" viewBox="0 0 125 125" version="1.1" xmlns="http://www.w3.org/2000/svg" xmlns:xlink="http://www.w3.org/1999/xlink">
    <!-- Generator: Sketch 64 (93537) - https://sketch.com -->
    <title>back</title>
    <desc>Created with Sketch.</desc>
    <g id="Page-1" stroke="none" stroke-width="1" fill="none" fill-rule="evenodd">
        <g id="back" fill="#717171" fill-rule="nonzero">
            <path d="M62.5,0 C28.0354004,0 0,28.0354004 0,62.5 C0,96.9645996 28.0354004,125 62.5,125 C96.9645996,125 125,96.9645996 125,62.5 C125,28.0354004 96.9645996,0 62.5,0 Z M62.5,119.791748 C30.9091797,119.791748 5.20825195,94.0908203 5.20825195,62.5 C5.20825195,30.9091797 30.9091797,5.20825195 62.5,5.20825195 C94.0908203,5.20825195 119.791748,30.9091797 119.791748,62.5 C119.791748,94.0908203 94.0908203,119.791748 62.5,119.791748 Z" id="Shape"></path>
            <path d="M75.2334722,31.7568987 C74.2117619,30.7477004 72.5567238,30.7477004 71.5352588,31.7568987 L42.7662827,60.1735679 C41.7445724,61.1827662 41.7445724,62.8175366 42.7662827,63.8264927 L71.5352588,92.2431618 C72.0459913,92.7476399 72.7153623,93 73.3844881,93 C74.0536139,93 74.7227396,92.7476399 75.2337173,92.2431618 C76.2554276,91.2339636 76.2554276,89.5991932 75.2337173,88.5902371 L48.3137253,62.0001514 L75.2337173,35.4098235 C76.2551824,34.4008674 76.2551824,32.766097 75.2334722,31.7568987 Z" id="Path"></path>
        </g>
    </g>
</svg>
