<?xml version="1.0" encoding="UTF-8"?>
<svg width="512px" height="470px" viewBox="0 0 512 470" version="1.1" xmlns="http://www.w3.org/2000/svg" xmlns:xlink="http://www.w3.org/1999/xlink">
    <!-- Generator: Sketch 64 (93537) - https://sketch.com -->
    <title>cart-logo</title>
    <desc>Created with Sketch.</desc>
    <g id="Page-1" stroke="none" stroke-width="1" fill="none" fill-rule="evenodd">
        <g id="cart-logo" fill="#FF7171" fill-rule="nonzero">
            <path d="M509.867,68.6 C507.734,66.467 505.6,64.333 501.334,64.333 L96,64.333 L85.333,8.867 C85.333,4.6 78.933,0.333999824 74.666,0.333999824 L10.666,0.333999824 C4.267,0.333999824 0,4.6 0,11 C0,17.4 4.267,21.667 10.667,21.667 L66.134,21.667 L117.334,281.934 C123.734,316.067 155.734,341.667 189.867,341.667 L435.2,341.667 C441.6,341.667 445.867,337.4 445.867,331 C445.867,324.6 441.6,320.333 435.2,320.333 L192,320.333 C174.933,320.333 157.867,311.8 149.333,296.866 L460.8,254.2 C465.067,254.2 469.333,249.933 469.333,245.667 L512,75 C512,75 512,70.733 509.867,68.6 Z M450.133,235 L138.666,275.533 L100.266,83.533 L486.4,83.533 L450.133,235 Z" id="Shape"></path>
            <path d="M181.333,363 C151.467,363 128,386.467 128,416.333 C128,446.2 151.467,469.666 181.333,469.666 C211.2,469.666 234.666,446.199 234.666,416.333 C234.666,386.467 211.2,363 181.333,363 Z M181.333,448.333 C164.266,448.333 149.333,433.399 149.333,416.333 C149.333,399.267 164.266,384.333 181.333,384.333 C198.4,384.333 213.333,399.267 213.333,416.333 C213.333,433.399 198.4,448.333 181.333,448.333 Z" id="Shape"></path>
            <path d="M394.667,363 C364.8,363 341.334,386.467 341.334,416.333 C341.334,446.2 364.801,469.666 394.667,469.666 C424.534,469.666 448,446.199 448,416.333 C448,386.467 424.533,363 394.667,363 Z M394.667,448.333 C377.6,448.333 362.667,433.399 362.667,416.333 C362.667,399.267 377.6,384.333 394.667,384.333 C411.734,384.333 426.667,399.267 426.667,416.333 C426.667,433.399 411.733,448.333 394.667,448.333 Z" id="Shape"></path>
        </g>
    </g>
</svg>