<?xml version="1.0" encoding="UTF-8"?>
<svg width="28px" height="26px" viewBox="0 0 28 26" version="1.1" xmlns="http://www.w3.org/2000/svg" xmlns:xlink="http://www.w3.org/1999/xlink">
    <!-- Generator: Sketch 64 (93537) - https://sketch.com -->
    <title>cart-logo</title>
    <desc>Created with Sketch.</desc>
    <g id="Page-1" stroke="none" stroke-width="1" fill="none" fill-rule="evenodd">
        <g id="cart-logo" fill="#FFFFFF" fill-rule="nonzero">
            <path d="M27.8833516,3.79996661 C27.7667031,3.68123505 27.65,3.56244782 27.4167031,3.56244782 L5.25,3.56244782 L4.66664844,0.474981919 C4.66664844,0.237463132 4.31664844,0 4.08329688,0 L0.583296875,0 C0.233351563,0 0,0.237463132 0,0.59371348 C0,0.949963828 0.233351563,1.18748261 0.583351562,1.18748261 L3.61670312,1.18748261 L6.41670312,15.6750153 C6.76670313,17.5749986 8.51670313,19 10.3833516,19 L23.8,19 C24.15,19 24.3833516,18.7624812 24.3833516,18.4062309 C24.3833516,18.0499805 24.15,17.8124617 23.8,17.8124617 L10.5,17.8124617 C9.56664844,17.8124617 8.63335156,17.3374798 8.16664844,16.5061919 L25.2,14.1312267 C25.4333516,14.1312267 25.6666484,13.8937079 25.6666484,13.6562448 L28,4.15621696 C28,4.15621696 28,3.91869817 27.8833516,3.79996661 Z M25.0276096,13.6777969 L8.08839418,16 L6,5 L27,5 L25.0276096,13.6777969 Z" id="Shape"></path>
            <path d="M10,20 C8.320027,20 7,21.320027 7,23 C7,24.6800293 8.320027,26 10,26 C11.6800293,26 13,24.679973 13,23 C13,21.320027 11.6800293,20 10,20 Z M10,25 C8.9333125,25 8,24.066625 8,23 C8,21.933375 8.9333125,21 10,21 C11.0666875,21 12,21.933375 12,23 C12,24.066625 11.0666875,25 10,25 Z" id="Shape"></path>
            <path d="M22,20 C20.3199707,20 19,21.320027 19,23 C19,24.6800293 20.320027,26 22,26 C23.6800293,26 25,24.679973 25,23 C25,21.320027 23.679973,20 22,20 Z M22,25 C20.9333125,25 20,24.066625 20,23 C20,21.933375 20.9333125,21 22,21 C23.0666875,21 24,21.933375 24,23 C24,24.066625 23.066625,25 22,25 Z" id="Shape"></path>
        </g>
    </g>
</svg>