<?xml version="1.0" encoding="UTF-8"?>
<svg width="384px" height="480px" viewBox="0 0 384 480" version="1.1" xmlns="http://www.w3.org/2000/svg" xmlns:xlink="http://www.w3.org/1999/xlink">
    <!-- Generator: Sketch 64 (93537) - https://sketch.com -->
    <title>person</title>
    <desc>Created with Sketch.</desc>
    <g id="Page-1" stroke="none" stroke-width="1" fill="none" fill-rule="evenodd">
        <g id="person" transform="translate(0.000000, -1.000000)" fill="#D3D3D3" fill-rule="nonzero">
            <path d="M4.169,432.023 C7.835,434.023 95.075,481 192,481 C297.008,481 376.772,433.866 380.116,431.86 C382.525648,430.414195 384,427.810116 384,425 C384,360.407 364.193,301.3 328.229,258.558 C303.071,228.658 271.505,208.278 236.69,198.896 C280.584613,178.007044 304.153209,129.497577 293.445756,82.0799012 C282.738302,34.6622251 240.611579,0.987513163 192,0.987513163 C143.388421,0.987513163 101.261698,34.6622251 90.5542445,82.0799012 C79.8467908,129.497577 103.415387,178.007044 147.31,198.896 C112.495,208.278 80.929,228.661 55.771,258.558 C19.807,301.3 0,360.407 0,425 C0,427.927456 1.599036,430.621115 4.169,432.023 Z M104,105 C104,56.398942 143.398942,17 192,17 C240.601058,17 280,56.398942 280,105 C280,153.601058 240.601058,193 192,193 C143.421787,192.944891 104.055109,153.578213 104,105 Z M68.013,268.859 C100.5,230.258 144.528,209 192,209 C239.472,209 283.5,230.258 315.987,268.859 C348.668,307.697 367.043,361.339 367.964,420.333 C350.845,429.6 279.708,465 192,465 C110.89,465 34.5,429.391 16.04,420.144 C17,361.223 35.367,307.656 68.013,268.859 Z" id="Shape"></path>
        </g>
    </g>
</svg>